<?xml version="1.0" standalone="no"?>
<!DOCTYPE svg PUBLIC "-//W3C//DTD SVG 20010904//EN"
 "http://www.w3.org/TR/2001/REC-SVG-20010904/DTD/svg10.dtd">
<svg version="1.0" xmlns="http://www.w3.org/2000/svg"
 width="720.000000pt" height="720.000000pt" viewBox="0 0 720.000000 720.000000"
 preserveAspectRatio="xMidYMid meet">
<metadata>
Created by potrace 1.11, written by Peter Selinger 2001-2013
</metadata>
<g transform="translate(0.000000,720.000000) scale(0.100000,-0.100000)"
fill="#000000" stroke="none">
<path d="M3679 5065 c-3 -2 -27 -7 -54 -10 -28 -4 -57 -8 -65 -10 -8 -3 -33
-7 -55 -10 -242 -37 -679 -215 -1013 -413 -57 -34 -108 -62 -112 -62 -5 0 -10
-3 -12 -8 -1 -4 -62 -46 -135 -94 -152 -100 -310 -214 -469 -339 l-112 -87
-73 60 c-220 178 -422 362 -687 626 -96 94 -177 172 -180 172 -12 0 -122 -105
-122 -116 0 -17 333 -347 534 -529 114 -103 101 -92 176 -155 36 -30 70 -60
76 -65 6 -6 39 -33 73 -60 l61 -50 -37 -33 c-21 -18 -52 -45 -69 -60 -16 -15
-63 -56 -104 -92 -141 -124 -447 -421 -550 -534 l-24 -27 64 -59 c35 -33 65
-58 66 -57 2 1 97 94 211 207 231 227 266 259 433 405 63 55 121 105 128 112
21 21 41 15 90 -24 61 -50 57 -46 132 -101 36 -26 66 -50 68 -54 2 -5 8 -8 14
-8 6 0 27 -13 48 -30 21 -16 42 -30 48 -30 6 0 12 -3 14 -7 3 -8 94 -70 149
-103 14 -8 76 -45 138 -83 169 -102 388 -212 570 -287 51 -21 247 -88 281 -96
8 -2 49 -12 90 -22 92 -24 196 -42 275 -49 142 -12 406 -4 525 17 30 5 73 11
95 14 218 26 660 161 933 287 35 16 66 29 69 29 3 0 83 39 177 87 94 47 181
91 193 97 13 6 23 14 23 19 0 4 5 7 11 7 30 0 420 250 610 391 99 74 129 90
129 71 0 -4 9 -13 20 -20 24 -14 21 -17 88 64 23 29 42 56 42 60 0 7 -192 154
-276 212 -288 197 -661 408 -904 512 -41 17 -88 38 -105 45 -16 7 -52 22 -80
33 -27 10 -59 23 -70 27 -11 5 -22 9 -25 10 -21 5 -60 19 -85 30 -69 30 -410
125 -505 140 -19 3 -48 8 -63 11 -30 6 -38 7 -132 19 -33 4 -69 10 -80 12 -25
6 -451 14 -456 8z m456 -190 c41 -6 151 -23 250 -40 11 -2 52 -11 90 -20 39
-9 77 -18 85 -20 130 -31 412 -127 560 -192 176 -77 473 -225 500 -248 8 -8
18 -14 23 -14 4 0 17 -7 30 -14 12 -8 58 -36 102 -62 158 -95 355 -228 355
-239 0 -6 -15 -21 -33 -34 -17 -13 -68 -49 -112 -80 -199 -143 -491 -318 -742
-445 -81 -41 -151 -75 -155 -76 -8 -2 -84 -34 -134 -57 -73 -32 -317 -121
-354 -129 -3 0 -37 -11 -76 -23 -69 -21 -229 -61 -269 -68 -11 -1 -58 -10
-105 -18 -338 -59 -581 -54 -870 19 -274 70 -550 194 -925 416 -64 38 -263
171 -350 234 -44 32 -100 72 -124 89 -94 67 -96 53 31 151 62 47 120 91 128
98 86 69 414 288 534 357 17 10 67 38 111 64 44 25 85 46 90 46 6 0 17 6 24
13 6 6 15 12 19 12 4 1 23 9 42 20 19 11 37 20 40 20 3 0 14 6 25 12 62 33
347 145 402 158 10 2 52 13 93 24 74 20 101 26 170 37 19 3 53 9 75 13 47 9
397 6 470 -4z"/>
<path d="M5155 4336 c-58 -27 -100 -93 -95 -151 5 -63 15 -84 60 -123 70 -61
198 -34 242 51 22 45 22 117 -1 158 -36 63 -140 96 -206 65z m106 -113 c26
-31 -2 -91 -40 -88 -30 2 -51 25 -51 56 0 45 62 67 91 32z"/>
<path d="M6702 3447 c-36 -20 -167 -111 -170 -119 -2 -5 -8 -8 -12 -8 -5 0
-37 -20 -72 -44 -35 -24 -139 -92 -232 -150 l-168 -106 -27 38 c-14 21 -30 45
-36 54 -13 20 -157 232 -160 236 -5 6 -55 -30 -55 -39 0 -5 40 -71 90 -146 49
-75 88 -138 86 -140 -2 -2 -19 3 -37 11 -19 7 -52 21 -74 29 -151 57 -215 82
-253 99 -42 19 -44 19 -72 1 -29 -18 -29 -19 -14 -48 9 -17 45 -86 81 -155 36
-69 69 -129 74 -134 5 -6 9 -14 9 -18 0 -8 -100 -62 -105 -56 -6 8 -54 119
-54 125 2 21 -32 17 -94 -13 -83 -40 -80 -37 -72 -63 6 -20 6 -20 54 -1 l48
18 21 -45 c11 -25 18 -51 16 -58 -8 -20 -116 -68 -159 -70 -74 -4 -132 43
-160 131 -22 70 -10 127 38 174 24 24 112 63 150 66 9 1 24 2 32 3 12 1 13 5
3 27 -11 24 -16 25 -53 20 -22 -4 -71 -23 -110 -42 -106 -52 -159 -136 -149
-235 4 -38 32 -107 51 -127 7 -7 13 -16 13 -20 0 -4 23 -18 50 -31 l49 -25
-27 -12 c-107 -48 -146 -64 -156 -64 -6 0 -35 76 -64 168 -29 92 -57 175 -62
184 -6 10 -10 24 -10 32 0 13 -5 13 -35 3 -19 -7 -35 -15 -35 -20 -2 -7 24
-98 56 -202 9 -27 18 -57 20 -65 2 -8 12 -42 23 -75 22 -69 29 -61 -91 -104
l-87 -30 38 38 c34 34 38 43 35 77 -3 28 -13 46 -35 66 -27 23 -49 31 -119 44
-33 6 -85 18 -90 20 -3 1 -15 5 -26 9 -42 13 -48 71 -10 98 20 13 90 29 128
29 43 -1 53 9 39 37 -8 15 -19 18 -51 16 -133 -11 -212 -62 -219 -141 -5 -59
78 -113 194 -128 92 -11 130 -46 100 -92 -25 -39 -130 -68 -188 -53 -24 7 -29
4 -38 -18 -12 -33 3 -45 54 -41 20 2 37 1 37 -3 0 -13 -278 -83 -375 -94 -16
-2 -41 -6 -55 -9 -94 -21 -468 -29 -615 -12 -110 11 -148 16 -175 21 -14 3
-42 7 -63 10 -65 7 -157 27 -162 34 -2 4 17 6 41 6 52 -2 127 29 161 66 77 84
72 242 -10 320 -63 61 -215 85 -298 47 -24 -10 -55 -29 -67 -41 -34 -31 -68
-105 -71 -152 -1 -21 -4 -41 -6 -43 -7 -7 36 -97 58 -120 12 -13 39 -33 60
-43 20 -11 37 -22 37 -25 0 -3 -5 -2 -11 1 -5 4 -23 9 -40 12 -16 2 -73 16
-127 31 l-97 27 1 50 c1 50 11 165 19 234 2 20 7 63 10 96 l5 60 -46 17 c-43
15 -47 15 -63 -1 -18 -18 -115 -142 -173 -223 -21 -28 -38 -50 -39 -47 0 2 -3
51 -5 109 -4 91 -10 210 -13 246 -1 6 -24 18 -53 28 -41 13 -53 14 -60 4 -4
-7 -29 -51 -55 -98 -52 -93 -73 -130 -117 -207 l-30 -51 -60 26 c-34 14 -63
27 -65 28 -2 2 6 24 18 49 11 25 22 48 23 52 1 5 14 33 28 63 46 93 102 221
98 224 -11 10 -49 26 -60 26 -12 0 -121 -210 -118 -226 1 -4 -2 -10 -7 -13 -4
-3 -21 -34 -37 -68 -16 -35 -33 -63 -37 -63 -4 0 -36 14 -72 31 -62 29 -65 32
-57 55 11 27 52 106 60 114 3 3 33 60 68 127 l62 121 -31 16 c-30 15 -32 14
-50 -7 -10 -12 -18 -25 -19 -29 0 -3 -17 -37 -39 -75 -21 -37 -52 -94 -69
-126 l-30 -58 -7 53 c-7 51 -9 63 -20 111 -3 12 -8 42 -11 67 -3 25 -7 52 -9
60 -2 8 -7 38 -10 65 -3 28 -8 59 -10 70 -2 11 -4 25 -4 31 -1 6 -15 18 -33
27 l-31 15 -61 -86 c-93 -133 -93 -132 -142 -206 l-47 -70 29 -23 c16 -12 32
-23 36 -23 6 0 103 143 176 260 l22 35 1 -40 c2 -41 3 -53 13 -115 7 -44 14
-84 40 -220 3 -14 8 -35 12 -47 3 -13 3 -23 -1 -23 -4 0 -46 21 -94 46 -47 26
-108 59 -136 74 -89 47 -249 140 -322 187 -20 13 -23 12 -47 -24 -14 -21 -26
-42 -26 -48 0 -30 566 -338 861 -468 125 -55 349 -146 451 -182 174 -62 489
-157 568 -171 14 -3 43 -10 65 -16 22 -5 49 -12 60 -14 58 -11 142 -27 160
-30 31 -4 97 -15 125 -20 14 -2 53 -6 86 -9 34 -3 72 -8 85 -11 43 -10 432
-12 504 -3 39 5 88 11 110 14 22 2 51 7 65 10 14 3 41 8 60 11 204 37 451 110
707 210 62 24 117 44 123 44 5 0 10 5 10 10 0 6 3 9 8 8 18 -6 455 204 637
307 44 24 87 48 95 52 44 20 386 230 525 322 88 58 167 110 176 116 103 65
176 121 164 123 -17 4 -19 14 -6 28 4 5 11 24 14 42 5 26 3 32 -11 32 -9 0
-27 -6 -40 -13z m-1061 -377 c32 -17 200 -81 278 -106 20 -6 10 -14 -94 -73
-49 -28 -92 -48 -96 -43 -4 4 -29 45 -54 92 -26 47 -56 100 -67 118 -23 38
-20 39 33 12z m-3215 -247 c0 -81 11 -252 19 -291 2 -12 2 -22 -1 -22 -10 0
-169 63 -177 70 -5 4 6 34 24 66 17 33 54 103 81 157 27 53 50 97 51 97 1 0 2
-35 3 -77z m322 -90 c-12 -60 -19 -116 -34 -240 -5 -48 -10 -63 -23 -63 -23 0
-171 50 -171 58 0 4 13 21 28 37 66 72 143 169 168 210 14 25 29 45 34 45 4 0
3 -21 -2 -47z m516 -38 c62 -41 90 -127 67 -212 -23 -85 -87 -127 -181 -117
-58 6 -105 39 -132 93 -19 39 -20 50 -10 102 13 71 41 113 90 138 45 23 127
21 166 -4z m1386 -329 c0 -2 -7 -7 -16 -10 -8 -3 -12 -2 -9 4 6 10 25 14 25 6z"/>
<path d="M4255 2758 c-29 -7 -126 -19 -172 -20 -31 -1 -39 -12 -35 -49 3 -24
23 -275 28 -349 1 -19 2 -39 3 -44 1 -8 128 -1 186 11 17 3 41 7 55 8 111 11
132 21 111 53 -8 13 -33 12 -131 -4 -42 -7 -140 -15 -140 -12 -1 2 -3 36 -6
76 -5 56 -3 72 8 73 16 1 60 6 115 14 32 5 40 10 38 23 -2 9 -4 21 -4 25 -1 7
-25 5 -133 -9 l-36 -5 -7 66 c-4 36 -5 68 -3 71 4 3 137 23 190 27 20 1 30 20
22 41 -5 14 -45 16 -89 4z"/>
<path d="M3539 2691 c-1 -20 -3 -58 -4 -86 -2 -27 -6 -95 -9 -150 -3 -55 -7
-115 -9 -133 -2 -18 1 -36 6 -39 5 -3 64 -7 132 -9 111 -3 126 -1 174 21 92
43 133 110 133 215 -1 81 -43 154 -108 188 -34 17 -97 25 -206 27 l-108 1 -1
-35z m265 -38 c48 -28 74 -89 71 -169 -3 -71 -17 -100 -69 -138 -22 -17 -44
-21 -112 -23 -73 -2 -84 0 -85 15 -1 15 0 99 5 267 1 28 5 56 9 63 12 18 141
7 181 -15z"/>
</g>
</svg>
